# xmcd
# Copyright (C) 1995-1998 Ti Kan
#
# Track frame offsets:
#       150
#       20587
#       48905
#       75377
#       99287
#       118800
#       141945
#       163672
#       190917
#       223075
#       249995
#       271347
#       299890
#
# Disc length: 4391 seconds
#
# Revision: 0
# Processed by: cddbd v1.5.2PL0 Copyright (c) Steve Scherf et al.
# Submitted via: CD-Import v1.0
#
DISCID=be11250d
DTITLE=Various Artist - King Size Dub 4
DYEAR=1998
DGENRE=
TTITLE0=Dreadzone - Earth Angel (William Orbit Remix)
TTITLE1=Khao - No Compromise (Smith and Mighty Mix No.1)
TTITLE2=The Groove Corporation Feat. Bim Sherman - Ghettoprayer (G.c. Jungle Mix)
TTITLE3=Horace Andy Feat. Massive Attack - Spying Glass
TTITLE4=The Truth - Truth Theme (Fila Brazilia Mix)
TTITLE5=Brooklyn Funk Essentials - Dilly Dally
TTITLE6=Jehlisa - Galactica Dub
TTITLE7=Apollo Four Forty - Ain't Talkin' Bout Dub (Matrix Remix)
TTITLE8=Kruder and Dorfmeister - Shakatakadoodub
TTITLE9=Asian Dub Foundation - Return To Jericho (Dub Version)
TTITLE10=Strange Parcels - Disconnection
TTITLE11=Primal Scream - Last Train (A.m.s. Mix)
TTITLE12=Painted Van - Summertime Bass
EXTD=
EXTT0=
EXTT1=
EXTT2=
EXTT3=
EXTT4=
EXTT5=
EXTT6=
EXTT7=
EXTT8=
EXTT9=
EXTT10=
EXTT11=
EXTT12=
PLAYORDER=
